<svg aria-hidden="true" style="position: absolute; width: 0; height: 0; overflow: hidden;" version="1.1" xmlns="http://www.w3.org/2000/svg" xmlns:xlink="http://www.w3.org/1999/xlink">
<defs>
<symbol id="icon-log-in" viewBox="0 0 20 20">
<path fill="none" stroke="#f4c550" style="stroke: var(--color1, #f4c550)" stroke-linejoin="round" stroke-linecap="round" stroke-miterlimit="4" stroke-width="2" d="M12.5 2.5h1c1.4 0 2.1 0 2.635 0.272 0.47 0.24 0.853 0.622 1.093 1.093 0.273 0.535 0.273 1.235 0.273 2.635v7c0 1.4 0 2.1-0.273 2.635-0.24 0.47-0.622 0.853-1.093 1.093-0.535 0.273-1.235 0.273-2.635 0.273h-1"></path>
<path fill="none" stroke="#f4c550" style="stroke: var(--color1, #f4c550)" stroke-linejoin="round" stroke-linecap="round" stroke-miterlimit="4" stroke-width="2" d="M8.333 5.833l4.167 4.167M12.5 10l-4.167 4.167M12.5 10h-10"></path>
</symbol>
<symbol id="icon-ukraine" viewBox="0 0 32 32">
<path fill="#ffda44" style="fill: var(--color1, #ffda44)" d="M16 32c8.837 0 16-7.163 16-16s-7.163-16-16-16c-8.837 0-16 7.163-16 16s7.163 16 16 16z"></path>
<path fill="#338af3" style="fill: var(--color2, #338af3)" d="M0 16c0-8.836 7.163-16 16-16s16 7.163 16 16z"></path>
</symbol>
<symbol id="icon-close" viewBox="0 0 32 32">
<path stroke-linejoin="round" stroke-linecap="round" stroke-miterlimit="4" stroke-width="2.5" d="M24 8l-16 16"></path>
<path stroke-linejoin="round" stroke-linecap="round" stroke-miterlimit="4" stroke-width="2.5" d="M8 8l16 16"></path>
</symbol>
<symbol id="icon-eye-off" viewBox="0 0 20 20">
<path stroke-linejoin="round" stroke-linecap="round" stroke-miterlimit="4" stroke-width="2" d="M14.95 14.95c-1.424 1.086-3.159 1.687-4.95 1.717-5.833 0-9.167-6.667-9.167-6.667 1.037-1.932 2.474-3.619 4.217-4.95M8.25 3.533c0.574-0.134 1.161-0.201 1.75-0.2 5.833 0 9.167 6.667 9.167 6.667-0.506 0.946-1.109 1.837-1.8 2.658M11.767 11.767c-0.229 0.246-0.505 0.443-0.812 0.579s-0.638 0.21-0.973 0.216c-0.336 0.006-0.669-0.056-0.98-0.182s-0.594-0.313-0.831-0.55-0.425-0.52-0.55-0.832c-0.126-0.311-0.187-0.645-0.182-0.98s0.079-0.667 0.216-0.973 0.334-0.583 0.579-0.812"></path>
<path stroke-linejoin="round" stroke-linecap="round" stroke-miterlimit="4" stroke-width="2" d="M0.833 0.833l18.333 18.333"></path>
</symbol>
</defs>
</svg>
